<?xml version="1.0" encoding="UTF-8" standalone="no"?>
<!-- Created with Inkscape (http://www.inkscape.org/) -->

<svg
   xmlns:dc="http://purl.org/dc/elements/1.1/"
   xmlns:cc="http://creativecommons.org/ns#"
   xmlns:rdf="http://www.w3.org/1999/02/22-rdf-syntax-ns#"
   xmlns:svg="http://www.w3.org/2000/svg"
   xmlns="http://www.w3.org/2000/svg"
   xmlns:sodipodi="http://sodipodi.sourceforge.net/DTD/sodipodi-0.dtd"
   xmlns:inkscape="http://www.inkscape.org/namespaces/inkscape"
   id="svg8"
   version="1.1"
   viewBox="0 0 210 297"
   height="297mm"
   width="210mm"
   inkscape:version="0.92.4 5da689c313, 2019-01-14"
   sodipodi:docname="dirt.svg"
   inkscape:export-filename="/home/bwhaines/git/StoneflowerHarvest/assets/images/dirt.png"
   inkscape:export-xdpi="127.19743"
   inkscape:export-ydpi="127.19743">
  <defs
     id="defs2" />
  <sodipodi:namedview
     id="base"
     pagecolor="#ffffff"
     bordercolor="#666666"
     borderopacity="1.0"
     inkscape:pageopacity="0.0"
     inkscape:pageshadow="2"
     inkscape:zoom="1.4"
     inkscape:cx="323.7325"
     inkscape:cy="661.24558"
     inkscape:document-units="mm"
     inkscape:current-layer="layer1"
     showgrid="false"
     inkscape:window-width="1920"
     inkscape:window-height="1015"
     inkscape:window-x="0"
     inkscape:window-y="0"
     inkscape:window-maximized="1"
     showguides="false" />
  <metadata
     id="metadata5">
    <rdf:RDF>
      <cc:Work
         rdf:about="">
        <dc:format>image/svg+xml</dc:format>
        <dc:type
           rdf:resource="http://purl.org/dc/dcmitype/StillImage" />
        <dc:title />
      </cc:Work>
    </rdf:RDF>
  </metadata>
  <g
     inkscape:label="Layer 1"
     inkscape:groupmode="layer"
     id="layer1">
    <path
       id="path815"
       d="M199.19345 125.587789951L199.280832266 126.575432811L199.421844888 127.556855003L198.877477979 128.431215087L198.871416605 129.461168556L198.963342493 130.470335431L198.94667813 131.48354343L198.591196155 132.447616375L197.927196032 133.231777018L197.210879423 133.958039258L196.629578308 134.79628465L196.462658688 135.800990649L196.428085192 136.818881103L196.074336719 137.774110623L195.262726113 138.389650745L195.079847386 139.378951414L194.465496425 140.175652951L193.846906903 141.078198761L193.884958341 142.171722434L192.782923221 142.375350946L192.13031924 143.286423951L191.628074189 144.218467368L190.619400636 144.540232324L189.919180819 145.249398667L189.50131883 146.154172702L188.801271887 147.004822685L187.701651416 147.071948958L187.431214949 148.091792944L186.641723444 148.791736372L185.561396147 148.847072088L184.842238749 149.655144948L184.102079706 150.341491097L183.59924282 151.216740497L182.903784162 151.936210684L182.271759348 152.711997207L181.26606795 152.887017724L180.41177128 153.44578831L179.540063072 153.883738184L178.747084939 154.451946749L178.064733458 155.191244103L177.105976825 155.496120863L176.402704046 156.204805778L175.466531721 156.551804753L174.419071117 156.61598489L173.70245437 157.382635558L172.74315465 157.953183446L172.32927284 158.989756016L171.251078628 158.669634789L170.219242669 159.117177986L169.1663957 159.051083013L168.12107851 159.193094481L167.52327548 160.07393121L166.670037591 160.710505567L165.906114237 161.359972967L165.036170578 161.858555783L164.119613284 162.451754198L163.064136139 162.172595409L162.070010759 162.312895179L161.06824057 162.379421746L160.246680901 162.955430346L159.411209049 163.511067801L158.405236389 163.740656692L157.385524632 163.582922794L156.30078154 163.795048498L155.7167133 164.733413661L154.702614654 164.508444234L153.715172082 164.830879457L152.757971046 165.179478683L151.987020961 165.845354954L151.016116552 166.238793829L150.277274108 166.981465602L149.264771527 166.729730098L148.228587085 166.851607262L147.406550099 167.495909254L146.510874012 168.033156135L145.519445113 167.582244114L144.444399318 167.756970909L143.669098494 168.483978074L142.705144111 168.93166405L141.677159387 168.718611275L140.638604749 168.565156589L139.678168688 168.785253901L138.772902425 169.174321052L137.773031628 168.855679106L136.81310195 169.279718391L135.855100095 168.754420454L134.763249631 168.794018933L133.747488696 169.154391937L132.972297281 169.903202493L131.97288578 169.836101462L130.98034677 169.701222962L130.179131684 170.397074175L129.118721401 170.438117499L128.113814316 170.400989138L127.206059007 170.8336519L126.232164956 170.945200035L125.25364845 170.886735887L124.24542535 170.737725032L123.327365199 171.18031244L122.358049883 171.334660032L121.380113601 171.250779219L120.408770448 171.356009654L119.433166833 171.303297698L118.470199162 171.452528705L117.498975892 171.531913773L116.483205731 171.777629542L115.540081169 171.327428121L114.537551653 171.344770243L113.612421903 171.731423998L112.63296051 172.061786153L111.665536712 171.697677695L110.670425479 171.462325767L109.724356354 171.850385176L108.758178587 171.591857702L107.778040406 171.791018637L106.792351097 171.578121425L105.83333 171.88987L104.715601698 171.781129964L103.880728246 172.532214029L102.886054883 172.262655023L101.94156643 171.850370268L100.944885466 171.809651887L99.9876313959 172.090179205L99.0181336107 171.919877385L98.0520177794 171.731333317L97.0723816692 171.841459667L96.1091416846 171.631737342L95.1198758665 171.928619667L94.1662817139 171.531827321L93.1414115258 171.520229211L92.1890064118 171.898934792L91.3032629648 171.38064504L90.2852877739 171.250674919L89.3103159102 171.011443582L88.3919805922 170.605904421L87.4206989598 170.879335618L86.4116895977 170.886597592L85.4436523627 171.225096743L84.4193896365 171.174464427L83.5974463174 170.514330126L82.5460081117 170.437872197L81.5946595386 170.164536589L80.6081280129 170.245357448L79.5994696227 170.354553872L78.6910900782 169.902710746L77.8449468774 169.264172055L76.7973999056 169.426453657L75.8258728461 169.326084736L74.8503032625 169.279151428L73.8828227329 169.131261342L72.9583702804 168.809892838L71.9597842139 168.937051284L71.0246218399 168.564472786L70.1091008297 168.160659412L69.1099512991 168.21491968L68.248496083 167.638067344L67.2184827923 167.75611957L66.1720455226 167.790210093L65.3709606361 167.11607648L64.3664700222 167.245374669L63.4338286843 166.850533498L62.4406828272 166.871238212L61.5000568316 166.551879299L60.511539728 166.394994105L59.6757887417 165.844267933L58.6718316984 165.794286166L57.6668208865 165.774762078L57.0318388848 164.883362737L55.9478143165 164.73274513L54.927089184 164.896443652L53.9167485258 164.677608653L52.9507901674 164.28552647L52.2536272851 163.51043428L51.2161856909 163.720447823L50.1749379129 163.530201103L49.5630354122 162.648355426L48.601148785 162.172067084L47.7267152456 161.729943342L46.773220137 161.504212315L45.8445108296 161.197471486L44.9963657067 160.710397811L44.3013258477 159.944461574L43.5031838183 159.286656113L42.464794626 159.326681376L41.4470113247 159.116988057L40.5462378611 158.561150252L39.493907885 158.674948843L39.0036189434 157.703804994L37.9642159222 157.38264307L36.9049208346 157.281527204L35.8443224766 157.195146513L35.3884797429 156.20597837L34.5618481179 155.496805352L33.5744537769 154.98439037L32.4770164138 155.166456106L31.5548277933 154.526933573L31.2545978438 153.445599721L30.3039125319 153.084185472L29.7127849236 152.256543658L28.9467564772 151.64636768L28.0668755066 151.216340027L27.0620444588 151.002914197L26.2862949244 150.329528216L25.9476109197 149.320939144L25.0247260902 148.791559921L24.5738939527 147.884052779L23.722620385 147.334369104L22.9744456685 146.703882342L22.1651745578 146.154010327L21.1204398961 145.922685325L20.4392010115 145.097521492L20.0842959678 144.143864262L19.5363505405 143.286440497L19.2651100923 142.279450493L18.386184747 141.718121278L17.6448143832 141.061411367L17.2013008692 140.175864256L16.6494543986 139.188045985L16.9183703679 138.088953784L16.2356070163 137.246013646L15.2385192479 136.818778521L14.2998667185 136.271404383L14.0175587375 135.222124048L13.781022342 134.240420141L13.7393611011 133.231481903L13.982822952 132.206349813L13.4407989199 131.30281264L13.1707807947 130.363428033L12.7952177787 129.461039176L13.1442711775 128.461621458L13.4713969137 127.454813232L12.7146990229 126.659026969L12.473206 125.587790024L12.3307878014 124.572436527L12.0085876155 123.599085251L12.7144215921 122.78718728L12.7952392582 121.714411245L13.3597936183 120.847811622L13.2352442403 119.82106726L13.5540646308 118.900353319L13.7394597508 117.943802614L14.4106507551 117.201821484L14.787233834 116.274881061L14.823116631 115.271134325L15.2385705643 114.35669837L15.1367844089 113.287990606L15.6484133407 112.344204327L16.3542577735 111.590599344L17.2011593492 110.999926377L17.7927478886 110.077635858L17.7534132984 108.98262463L18.7496699422 108.606760237L19.5363365905 107.889155244L20.4621306936 107.387698961L21.4387212554 106.994222151L21.5281746426 105.906949784L22.1653370873 105.021406375L23.0214722096 104.52673633L23.6552303289 103.767778856L24.467064547 103.201487778L25.0249325842 102.3838426L25.8215761603 101.698419082L26.8647547576 101.57104247L27.6864620652 100.929336184L28.0674133385 99.9588383826L28.856843895 99.3070555231L29.3621164978 98.4167066609L30.200312201 97.7751395643L31.2548850234 97.7297904897L31.7610657566 96.8235025381L32.6653163844 96.3136912123L33.5965528544 95.9474293108L34.5606796349 95.6794578669L35.343873021 95.0826363381L36.2717032931 94.7529109926L37.1636717905 94.353533278L37.9642022561 93.7929431133L39.036706089 94.0352064673L40.066677634 93.6503498438L40.5203572963 92.6490894381L41.4474141311 92.0584006359L42.4489631283 91.5362902854L43.5140345886 91.9122189972L44.3013716594 91.2358182534L44.9966193897 90.4650730148L45.6298036637 89.6206036521L46.6594346896 89.3884167021L47.6731319998 89.4082116138L48.6025210254 89.0029831421L49.6076117041 88.7577103358L50.3039714706 87.9925638808L51.2119458122 87.4254318283L52.2554483037 87.6645107282L53.2775375905 87.8755215198L54.2462179596 87.4871268662L55.2065076424 87.1414265901L55.9499442431 86.4421648534L56.5591335348 85.5211981934L57.6428771647 85.3095595235L58.6627027631 85.1773862443L59.6796367745 85.3302235542L60.6879217491 85.199537241L61.6953274128 85.3368373911L62.7069720752 85.0717587748L63.438070844 84.3239712474L64.4376755533 84.6187797498L65.4563185364 84.3985796112L66.3364678307 83.9035103684L67.2222588052 83.4186076102L67.9347198435 82.6063199209L68.9994320084 82.4224720833L69.988185844 82.7922938123L71.0280535678 82.6104219466L72.0004436304 82.3839180756L72.9900127296 82.5165809388L73.8565408069 82.0103438269L74.853556561 81.8958601675L75.8306259254 82.2494097448L76.8465710053 82.0314247891L77.9168647857 82.0082858516L78.6943614223 81.272376097L79.5718280761 80.670072688L80.6082541122 80.9120193698L81.5408986438 80.4114070792L82.5479374936 80.7374611284L83.6237780202 80.757074409L84.4254833756 80.039379458L85.4048771306 80.2785989611L86.4130106347 80.2888427852L87.4217708065 80.0716921944L88.3819842235 80.4495038633L89.3197997994 80.1346463756L90.2865456724 79.9247995055L91.2373708285 80.3310152838L92.2702110484 80.379190136L93.0773430135 79.646123592L94.1676835669 79.6436650101L95.1380755518 79.9870088477L96.1174420091 79.6701698704L97.1026881405 79.7015405973L98.0542377395 79.4441548503L99.031503725 79.3911151575L99.9928535249 79.2076251646L100.964575162 79.31620891L101.942303469 79.325193745L102.90598165 78.8906380871L103.879424318 78.4784201505L104.896109952 78.7858980925L105.83333 79.285709L106.80621413 79.2198697718L107.780489658 79.1795519307L108.752662734 79.2541005747L109.725093507 79.3252088138L110.62878379 79.8382921478L111.659934463 79.7093001887L112.669301608 79.8128631032L113.61464209 79.4442458435L114.59249464 79.4579371899L115.566457363 79.3697347195L116.537732264 79.4762927373L117.500378081 79.6437519165L118.527892582 79.804512388L119.471147636 79.3664486023L120.376498925 79.8158858751L121.381371942 79.9249043929L122.214907656 80.5735054029L123.27011659 80.6182174057L124.297320181 80.6632579281L125.254970033 80.2889817917L126.262975583 80.3399973989L127.238141973 80.0797507965L128.208071776 80.326685453L129.120651429 80.7377072562L130.109982083 80.7092602664L131.043593625 81.0378235962L132.025896376 81.0212445092L132.975569367 81.2728687747L133.972884627 81.5715033194L134.794243645 82.2111826799L135.872888608 82.4880232964L136.816356081 81.8964281572L137.901020014 82.1940944305L138.852421032 81.594146798L139.795001895 82.0185578739L140.642037397 82.6111068614L141.535605769 83.0641706317L142.445815151 83.4827994586L143.453580329 83.6592899407L144.448176333 83.4194601368L145.447458622 82.98808366L146.451560499 83.4081195847L147.237393022 84.070177539L148.232830323 84.3250462653L149.215135831 84.7724139095L149.904354788 85.6030998602L150.919382603 85.2504853139L151.990870143 85.331311884L152.730232779 86.051983468L153.735607028 86.2870308235L154.72211594 86.429975654L155.718844439 86.4428347374L156.589844476 86.9068242767L157.461545056 87.3694963575L158.378137824 87.9077536763L159.413031336 87.6651456358L160.301626978 88.0641133994L161.228120064 88.3647594584L162.159579435 88.6474186152L163.065509696 89.0035128759L164.038384456 89.2427470719L164.80635882 89.886123848L165.793042268 89.9995256591L166.670292628 90.46518219L167.711229362 90.681158682L168.765851453 90.5471162478L169.246856673 91.5393629472L170.219646858 92.0585919824L171.190223579 92.4230296564L172.226520483 92.3926534058L172.879751496 93.1821017837L173.702442102 93.7929370034L174.560616761 94.2563087971L175.358777757 94.8167694913L176.189346587 95.3337508359L177.104809743 95.6787747506L177.768074717 96.487444834L178.356862742 97.3518500577L179.366674621 97.6375885601L180.412059846 97.7299804071L181.379079965 97.9941605879L182.229587945 98.5247783907L182.921488129 99.2355109023L183.599782007 99.9592401219L184.498253244 100.378331397L185.353536569 100.879707995L186.087658078 101.55484698L186.641931241 102.384020242L187.518748563 102.919853222L187.92214707 103.864943293L188.708765755 104.447419978L189.501482586 105.021569845L190.228428742 105.675374459L190.80696228 106.463543307L191.547914528 107.102747755L192.13030641 107.889139677L192.668802421 108.702441824L193.177867863 109.534481914L193.619721787 110.444497928L194.465355885 110.999715911L195.344019116 111.546169592L195.770896367 112.488738693L196.233781987 113.375531629L196.428137309 114.356801631L196.681497002 115.356784605L196.613746105 116.386137264L196.975692481 117.413693507L197.92729526 117.944098224L198.186906603 119.018314814L197.692001314 120.006448451L197.908029835 121.118527475L198.871438395 121.714540917L199.330350812 122.627792765L199.644942968 123.600243956L199.790094614 124.678270583L199.19345 125.587790024L199.19345 125.587790018L199.19345 125.587790012L199.193449998 125.587790006L199.19345 125.58779"
       style="fill:#735c3d;fill-opacity:1;stroke:none;stroke-width:0.26499999;stroke-linecap:round;stroke-linejoin:round;stroke-miterlimit:4;stroke-dasharray:none;stroke-dashoffset:8.81574821;stroke-opacity:1;paint-order:stroke fill markers" />
  </g>
</svg>
