<?xml version="1.0" encoding="UTF-8" standalone="no"?>
<!-- Created with Inkscape (http://www.inkscape.org/) -->

<svg
   xmlns:dc="http://purl.org/dc/elements/1.1/"
   xmlns:cc="http://creativecommons.org/ns#"
   xmlns:rdf="http://www.w3.org/1999/02/22-rdf-syntax-ns#"
   xmlns:svg="http://www.w3.org/2000/svg"
   xmlns="http://www.w3.org/2000/svg"
   xmlns:sodipodi="http://sodipodi.sourceforge.net/DTD/sodipodi-0.dtd"
   xmlns:inkscape="http://www.inkscape.org/namespaces/inkscape"
   width="210mm"
   height="297mm"
   viewBox="0 0 210 297"
   version="1.1"
   id="svg846"
   sodipodi:docname="foreman_head.svg"
   inkscape:version="0.92.4 5da689c313, 2019-01-14">
  <defs
     id="defs840" />
  <sodipodi:namedview
     id="base"
     pagecolor="#ffffff"
     bordercolor="#666666"
     borderopacity="1.0"
     inkscape:pageopacity="0.0"
     inkscape:pageshadow="2"
     inkscape:zoom="1.4"
     inkscape:cx="346.0914"
     inkscape:cy="796.45026"
     inkscape:document-units="mm"
     inkscape:current-layer="layer4"
     showgrid="false"
     inkscape:window-width="1920"
     inkscape:window-height="1015"
     inkscape:window-x="0"
     inkscape:window-y="0"
     inkscape:window-maximized="1"
     showguides="true">
    <inkscape:grid
       type="xygrid"
       id="grid2334" />
  </sodipodi:namedview>
  <metadata
     id="metadata843">
    <rdf:RDF>
      <cc:Work
         rdf:about="">
        <dc:format>image/svg+xml</dc:format>
        <dc:type
           rdf:resource="http://purl.org/dc/dcmitype/StillImage" />
      </cc:Work>
    </rdf:RDF>
  </metadata>
  <g
     inkscape:groupmode="layer"
     id="layer4"
     inkscape:label="features"
     style="display:inline">
    <path
       style="fill:#eaeaea;fill-opacity:1;stroke:#000000;stroke-width:0.2035315px;stroke-linecap:butt;stroke-linejoin:miter;stroke-opacity:1"
       d="m 81.536967,68.921702 3.10783,-2.93722 12.04685,-1.48518 4.607153,2.80021 1.20617,4.66974 -3.525753,4.10026 -13.60619,0.31971 -3.12756,-3.08539 z"
       id="path2259"
       inkscape:connector-curvature="0" />
    <path
       style="fill:#e9e9e9;fill-opacity:1;stroke:#000000;stroke-width:0.2035315px;stroke-linecap:butt;stroke-linejoin:miter;stroke-opacity:1"
       d="m 121.22705,72.563852 1.20617,-4.66973 4.60716,-2.80023 12.04684,1.48518 3.10784,2.93723 -0.7085,4.38212 -3.12756,3.08539 -13.60619,-0.3197 z"
       id="path2261"
       inkscape:connector-curvature="0" />
  </g>
  <g
     inkscape:groupmode="layer"
     id="layer3"
     inkscape:label="color"
     style="display:inline">
    <path
       style="fill:none;stroke:none;stroke-width:0.17419755px;stroke-linecap:butt;stroke-linejoin:miter;stroke-opacity:1"
       d="m 57.929159,52.087482 26.007148,9.51487 0.70849,4.38213 3.12757,3.08538 -7.71013,14.94942 -26.331962,-3.90505 z"
       id="path879"
       inkscape:connector-curvature="0" />
    <path
       style="fill:#b1b1b1;fill-opacity:1;stroke:#a6a6a6;stroke-width:0.17419755px;stroke-linecap:butt;stroke-linejoin:miter;stroke-opacity:1"
       d="m 85.484327,31.4701 11.20732,33.029202 -12.04685,1.48518 -3.10783,2.93722 -27.806692,11.19253 4.198884,-28.02675 z"
       id="path896"
       inkscape:connector-curvature="0" />
    <path
       style="fill:#adadad;fill-opacity:1;stroke:#a6a6a6;stroke-width:0.17419755px;stroke-linecap:butt;stroke-linejoin:miter;stroke-opacity:1"
       d="m 85.484327,31.4701 11.20732,33.029202 4.607153,2.80021 19.92825,5.26434 1.20617,-4.66973 4.60716,-2.80023 16.96587,-32.97949 z"
       id="path1510"
       inkscape:connector-curvature="0" />
    <path
       style="fill:#a8a8a8;fill-opacity:1;stroke:#a6a6a6;stroke-width:0.17419755px;stroke-linecap:butt;stroke-linejoin:miter;stroke-opacity:1"
       d="m 144.00625,32.114402 -16.96587,32.97949 12.04684,1.48518 3.10784,2.93723 24.11777,-11.63019 z"
       id="path1512"
       inkscape:connector-curvature="0" />
    <path
       style="fill:#9f9f9f;fill-opacity:1;stroke:#a6a6a6;stroke-width:0.17419755px;stroke-linecap:butt;stroke-linejoin:miter;stroke-opacity:1"
       d="m 162.90123,86.879312 -24.54223,-9.8955 3.12756,-3.08539 0.7085,-4.38212 24.11777,-11.63019 z"
       id="path1514"
       inkscape:connector-curvature="0" />
    <path
       style="fill:#a9a9a9;fill-opacity:1;stroke:#a6a6a6;stroke-width:0.17419755px;stroke-linecap:butt;stroke-linejoin:miter;stroke-opacity:1"
       d="m 101.2988,67.299512 1.20617,4.66975 -3.525753,4.10025 -6.78901,21.66629 16.267253,1.69232 20.54374,-2.03803 -4.24839,-20.72598 -3.52576,-4.10026 z"
       id="path1516"
       inkscape:connector-curvature="0" />
    <path
       style="fill:#9f9f9f;fill-opacity:1;stroke:#a6a6a6;stroke-width:0.17419755px;stroke-linecap:butt;stroke-linejoin:miter;stroke-opacity:1"
       d="m 124.75281,76.664112 4.24839,20.72598 9.53862,-5.99245 24.36141,-4.51833 -24.54223,-9.8955 z"
       id="path1518"
       inkscape:connector-curvature="0" />
    <path
       style="fill:#a0a0a0;fill-opacity:1;stroke:#a6a6a6;stroke-width:0.17419755px;stroke-linecap:butt;stroke-linejoin:miter;stroke-opacity:1"
       d="m 144.45867,112.60542 -15.45747,-15.215328 9.53862,-5.99245 24.36141,-4.51833 z"
       id="path1520"
       inkscape:connector-curvature="0" />
    <path
       style="fill:#a5a5a5;fill-opacity:1;stroke:#a6a6a6;stroke-width:0.17419755px;stroke-linecap:butt;stroke-linejoin:miter;stroke-opacity:1"
       d="m 92.190207,97.735802 16.267253,1.69232 20.54374,-2.03803 15.45747,15.215328 -37.53742,2.43547 -34.12382,-3.55727 z"
       id="path1522"
       inkscape:connector-curvature="0" />
    <path
       style="fill:#b2b2b2;fill-opacity:1;stroke:#a6a6a6;stroke-width:0.17419755px;stroke-linecap:butt;stroke-linejoin:miter;stroke-opacity:1"
       d="m 53.730275,80.114232 27.806692,-11.19253 0.7085,4.38213 3.12756,3.08539 -4.60229,12.0122 -7.973307,23.082198 z"
       id="path1524"
       inkscape:connector-curvature="0" />
    <path
       style="fill:#aaaaaa;fill-opacity:1;stroke:#a6a6a6;stroke-width:0.17419755px;stroke-linecap:butt;stroke-linejoin:miter;stroke-opacity:1"
       d="m 98.979217,76.069512 -6.78901,21.66629 -11.41947,-9.33438 4.60229,-12.0122 z"
       id="path1526"
       inkscape:connector-curvature="0" />
    <path
       style="fill:#adadad;fill-opacity:1;stroke:#a6a6a6;stroke-width:0.17419755px;stroke-linecap:butt;stroke-linejoin:miter;stroke-opacity:1"
       d="M 72.79743,111.48362 92.190207,97.735802 80.770737,88.401422 Z"
       id="path1528"
       inkscape:connector-curvature="0" />
  </g>
  <g
     inkscape:label="outlines"
     inkscape:groupmode="layer"
     id="layer1"
     style="display:inline">
    <path
       style="fill:none;fill-opacity:1;stroke:#000000;stroke-width:3.13588524;stroke-linecap:round;stroke-linejoin:round;stroke-miterlimit:4;stroke-dasharray:none;stroke-opacity:1"
       d="m 85.484327,31.4701 58.521923,0.644302 22.30658,25.77171 -3.4116,28.9932 -18.44256,25.726108 -37.53742,2.43547 -34.12382,-3.55727 -19.067154,-31.369388 4.198882,-28.02675 z"
       id="path2167"
       inkscape:connector-curvature="0"
       sodipodi:nodetypes="cccccccccc" />
    <path
       style="fill:none;stroke:#000000;stroke-width:1.12695563;stroke-linecap:round;stroke-linejoin:round;stroke-miterlimit:4;stroke-dasharray:none;stroke-opacity:1"
       d="m 84.644797,65.984482 12.04685,-1.48518 4.607153,2.80021 1.20617,4.66975 -3.525753,4.10025 -13.60619,0.31971 -3.12756,-3.08539 -0.7085,-4.38213 z"
       id="path2206"
       inkscape:connector-curvature="0"
       sodipodi:nodetypes="ccccccccc" />
    <path
       style="fill:none;stroke:#000000;stroke-width:1.12695563;stroke-linecap:round;stroke-linejoin:round;stroke-miterlimit:4;stroke-dasharray:none;stroke-opacity:1"
       d="m 139.08722,66.579072 -12.04684,-1.48518 -4.60716,2.80023 -1.20617,4.66973 3.52576,4.10026 13.60619,0.3197 3.12756,-3.08539 0.7085,-4.38212 z"
       id="path2206-3"
       inkscape:connector-curvature="0"
       sodipodi:nodetypes="ccccccccc" />
  </g>
  <g
     inkscape:groupmode="layer"
     id="layer2"
     inkscape:label="hat"
     style="display:inline">
    <g
       id="g875"
       transform="matrix(0.71087397,0,0,0.60977073,33.722166,-17.93971)">
      <path
         sodipodi:nodetypes="cccsscc"
         inkscape:connector-curvature="0"
         id="path843"
         d="m 46.359319,112.16825 133.588041,8.17161 18.34764,-4.96714 c 0,0 -35.39282,-106.4239598 -129.706469,-59.843226 C 48.203988,65.597252 41.494737,82.807249 30.519704,90.717573 L 11.350246,102.87637 Z"
         style="fill:#eedf1e;fill-opacity:1;stroke:#000000;stroke-width:2.36500001;stroke-linecap:round;stroke-linejoin:round;stroke-miterlimit:4;stroke-dasharray:none;stroke-opacity:1" />
      <path
         sodipodi:nodetypes="ccc"
         inkscape:connector-curvature="0"
         id="path845"
         d="m 116.86989,44.022663 -1.81448,26.275679 z"
         style="fill:none;stroke:#000000;stroke-width:1.46500003;stroke-linecap:round;stroke-linejoin:round;stroke-miterlimit:4;stroke-dasharray:none;stroke-opacity:1" />
      <path
         sodipodi:nodetypes="ccc"
         inkscape:connector-curvature="0"
         id="path845-3"
         d="m 127.59895,44.970863 -1.70904,23.538195 z"
         style="fill:none;stroke:#000000;stroke-width:1.46500015;stroke-linecap:round;stroke-linejoin:round;stroke-miterlimit:4;stroke-dasharray:none;stroke-opacity:1" />
      <path
         sodipodi:nodetypes="ccc"
         inkscape:connector-curvature="0"
         id="path845-6"
         d="m 104.42793,44.145226 -1.50874,23.54591 z"
         style="fill:none;stroke:#000000;stroke-width:1.46500015;stroke-linecap:round;stroke-linejoin:round;stroke-miterlimit:4;stroke-dasharray:none;stroke-opacity:1" />
      <path
         sodipodi:nodetypes="cc"
         inkscape:connector-curvature="0"
         id="path868"
         d="m 34.099545,87.756083 c 4.507322,1.87312 8.312418,14.201677 12.259773,24.412167"
         style="fill:none;stroke:#000000;stroke-width:1.16499996;stroke-linecap:butt;stroke-linejoin:miter;stroke-miterlimit:4;stroke-dasharray:none;stroke-opacity:1" />
    </g>
  </g>
</svg>
