<?xml version="1.0" encoding="UTF-8" standalone="no"?>
<!-- Created with Inkscape (http://www.inkscape.org/) -->

<svg
   xmlns:dc="http://purl.org/dc/elements/1.1/"
   xmlns:cc="http://creativecommons.org/ns#"
   xmlns:rdf="http://www.w3.org/1999/02/22-rdf-syntax-ns#"
   xmlns:svg="http://www.w3.org/2000/svg"
   xmlns="http://www.w3.org/2000/svg"
   xmlns:sodipodi="http://sodipodi.sourceforge.net/DTD/sodipodi-0.dtd"
   xmlns:inkscape="http://www.inkscape.org/namespaces/inkscape"
   width="210mm"
   height="297mm"
   viewBox="0 0 210 297"
   version="1.1"
   id="svg926"
   inkscape:version="0.92.4 5da689c313, 2019-01-14"
   sodipodi:docname="foreman_head_happy.svg">
  <defs
     id="defs920" />
  <sodipodi:namedview
     id="base"
     pagecolor="#ffffff"
     bordercolor="#666666"
     borderopacity="1.0"
     inkscape:pageopacity="0.0"
     inkscape:pageshadow="2"
     inkscape:zoom="1.4"
     inkscape:cx="400.00703"
     inkscape:cy="894.43536"
     inkscape:document-units="mm"
     inkscape:current-layer="layer1"
     showgrid="false"
     inkscape:window-width="1920"
     inkscape:window-height="1015"
     inkscape:window-x="0"
     inkscape:window-y="0"
     inkscape:window-maximized="1" />
  <metadata
     id="metadata923">
    <rdf:RDF>
      <cc:Work
         rdf:about="">
        <dc:format>image/svg+xml</dc:format>
        <dc:type
           rdf:resource="http://purl.org/dc/dcmitype/StillImage" />
        <dc:title></dc:title>
      </cc:Work>
    </rdf:RDF>
  </metadata>
  <g
     inkscape:groupmode="layer"
     id="layer2"
     inkscape:label="features" />
  <g
     inkscape:label="main"
     inkscape:groupmode="layer"
     id="layer1">
    <path
       style="display:inline;fill:#eaeaea;fill-opacity:1;stroke:#000000;stroke-width:0.20353152px;stroke-linecap:butt;stroke-linejoin:miter;stroke-opacity:1"
       d="m 75.352648,69.645452 3.10783,-2.93722 12.04685,-1.48518 4.607152,2.80021 1.206172,4.66974 -3.525755,4.10026 -13.60619,0.31971 -3.127561,-3.08539 z"
       id="path2259"
       inkscape:connector-curvature="0" />
    <path
       style="display:inline;fill:none;stroke:none;stroke-width:0.17419755px;stroke-linecap:butt;stroke-linejoin:miter;stroke-opacity:1"
       d="m 51.744839,52.811232 26.007148,9.51487 0.708491,4.38213 3.127571,3.08538 -7.710131,14.94942 -26.331963,-3.90505 z"
       id="path879"
       inkscape:connector-curvature="0" />
    <path
       style="display:inline;fill:#b1b1b1;fill-opacity:1;stroke:#a6a6a6;stroke-width:0.17419755px;stroke-linecap:butt;stroke-linejoin:miter;stroke-opacity:1"
       d="m 79.300009,32.193852 11.207319,33.0292 -12.04685,1.48518 -3.10783,2.93722 -27.806693,11.19253 4.198884,-28.02675 z"
       id="path896"
       inkscape:connector-curvature="0" />
    <path
       style="display:inline;fill:#adadad;fill-opacity:1;stroke:#a6a6a6;stroke-width:0.17419755px;stroke-linecap:butt;stroke-linejoin:miter;stroke-opacity:1"
       d="m 79.300009,32.193852 11.207319,33.0292 4.607152,2.80021 19.92824,5.26434 1.20617,-4.66973 4.60716,-2.80023 16.96588,-32.97949 z"
       id="path1510"
       inkscape:connector-curvature="0" />
    <path
       style="display:inline;fill:#a8a8a8;fill-opacity:1;stroke:#a6a6a6;stroke-width:0.17419755px;stroke-linecap:butt;stroke-linejoin:miter;stroke-opacity:1"
       d="m 137.82193,32.838152 -16.96588,32.97949 12.04684,1.48518 3.10785,2.93723 24.11776,-11.63019 z"
       id="path1512"
       inkscape:connector-curvature="0" />
    <path
       style="display:inline;fill:#9f9f9f;fill-opacity:1;stroke:#a6a6a6;stroke-width:0.17419755px;stroke-linecap:butt;stroke-linejoin:miter;stroke-opacity:1"
       d="m 156.71691,87.603062 -21.41467,-12.98089 v 0 l 0.7085,-4.38212 24.11776,-11.63019 z"
       id="path1514"
       inkscape:connector-curvature="0"
       sodipodi:nodetypes="cccccc" />
    <path
       style="display:inline;fill:#a9a9a9;fill-opacity:1;stroke:#a6a6a6;stroke-width:0.17419755px;stroke-linecap:butt;stroke-linejoin:miter;stroke-opacity:1"
       d="m 95.11448,68.023262 1.206172,4.66975 -5.663911,-2.381036 -4.650854,28.147579 16.267253,1.692325 20.54373,-2.038035 -2.11024,-27.207279 -5.66391,2.381036 z"
       id="path1516"
       inkscape:connector-curvature="0"
       sodipodi:nodetypes="ccccccccc" />
    <path
       style="display:inline;fill:#9f9f9f;fill-opacity:1;stroke:#a6a6a6;stroke-width:0.17419755px;stroke-linecap:butt;stroke-linejoin:miter;stroke-opacity:1"
       d="m 120.70663,70.906566 2.11024,27.207279 9.53862,-5.99245 24.36142,-4.518333 -21.41467,-12.98089 -5.39937,-2.393635 z"
       id="path1518"
       inkscape:connector-curvature="0"
       sodipodi:nodetypes="ccccccc" />
    <path
       style="display:inline;fill:#a0a0a0;fill-opacity:1;stroke:#a6a6a6;stroke-width:0.17419755px;stroke-linecap:butt;stroke-linejoin:miter;stroke-opacity:1"
       d="m 138.27434,113.32918 -15.45747,-15.215335 9.53862,-5.99245 24.36142,-4.518333 z"
       id="path1520"
       inkscape:connector-curvature="0" />
    <path
       style="display:inline;fill:#a5a5a5;fill-opacity:1;stroke:#a6a6a6;stroke-width:0.17419755px;stroke-linecap:butt;stroke-linejoin:miter;stroke-opacity:1"
       d="m 86.005887,98.459555 16.267253,1.692325 20.54373,-2.038035 15.45747,15.215335 -37.53741,2.43547 -34.123819,-3.55727 z"
       id="path1522"
       inkscape:connector-curvature="0" />
    <path
       style="display:inline;fill:#b2b2b2;fill-opacity:1;stroke:#a6a6a6;stroke-width:0.17419755px;stroke-linecap:butt;stroke-linejoin:miter;stroke-opacity:1"
       d="m 47.545955,80.837982 27.806693,-11.19253 0.708498,4.38213 5.399352,-2.393635 -6.874081,17.491225 -7.973306,23.082208 z"
       id="path1524"
       inkscape:connector-curvature="0"
       sodipodi:nodetypes="ccccccc" />
    <path
       style="display:inline;fill:#aaaaaa;fill-opacity:1;stroke:#a6a6a6;stroke-width:0.17419755px;stroke-linecap:butt;stroke-linejoin:miter;stroke-opacity:1"
       d="M 90.656741,70.311976 86.005887,98.459555 74.586417,89.125172 81.460498,71.633947 Z"
       id="path1526"
       inkscape:connector-curvature="0"
       sodipodi:nodetypes="ccccc" />
    <path
       style="display:inline;fill:#adadad;fill-opacity:1;stroke:#a6a6a6;stroke-width:0.17419755px;stroke-linecap:butt;stroke-linejoin:miter;stroke-opacity:1"
       d="M 66.613111,112.20738 86.005887,98.459555 74.586417,89.125172 Z"
       id="path1528"
       inkscape:connector-curvature="0" />
    <path
       style="display:inline;fill:none;fill-opacity:1;stroke:#000000;stroke-width:3.13588548;stroke-linecap:round;stroke-linejoin:round;stroke-miterlimit:4;stroke-dasharray:none;stroke-opacity:1"
       d="m 79.300009,32.193852 58.521921,0.6443 22.30657,25.77171 -3.41159,28.9932 -18.44257,25.726118 -37.53741,2.43547 -34.123819,-3.55727 -19.067155,-31.369398 4.198882,-28.02675 z"
       id="path2167"
       inkscape:connector-curvature="0"
       sodipodi:nodetypes="cccccccccc" />
    <path
       style="display:inline;fill:none;stroke:#000000;stroke-width:1.12695563;stroke-linecap:round;stroke-linejoin:round;stroke-miterlimit:4;stroke-dasharray:none;stroke-opacity:1"
       d="m 78.460478,66.708232 12.04685,-1.48518 4.607152,2.80021 1.206172,4.66975 -5.663911,-2.381036 -4.054011,-0.10921 -5.142232,1.431181 -5.399352,2.393635 -0.708498,-4.38213 z"
       id="path2206"
       inkscape:connector-curvature="0"
       sodipodi:nodetypes="cccccccccc" />
    <g
       style="display:inline"
       id="g875"
       transform="matrix(0.71087398,0,0,0.60977074,27.537847,-17.215962)">
      <path
         sodipodi:nodetypes="cccsscc"
         inkscape:connector-curvature="0"
         id="path843"
         d="m 46.359319,112.16825 133.588041,8.17161 18.34764,-4.96714 c 0,0 -35.39282,-106.4239598 -129.706469,-59.843226 C 48.203988,65.597252 41.494737,82.807249 30.519704,90.717573 L 11.350246,102.87637 Z"
         style="fill:#eedf1e;fill-opacity:1;stroke:#000000;stroke-width:2.36500001;stroke-linecap:round;stroke-linejoin:round;stroke-miterlimit:4;stroke-dasharray:none;stroke-opacity:1" />
      <path
         sodipodi:nodetypes="ccc"
         inkscape:connector-curvature="0"
         id="path845"
         d="m 116.86989,44.022663 -1.81448,26.275679 z"
         style="fill:none;stroke:#000000;stroke-width:1.46500003;stroke-linecap:round;stroke-linejoin:round;stroke-miterlimit:4;stroke-dasharray:none;stroke-opacity:1" />
      <path
         sodipodi:nodetypes="ccc"
         inkscape:connector-curvature="0"
         id="path845-3"
         d="m 127.59895,44.970863 -1.70904,23.538195 z"
         style="fill:none;stroke:#000000;stroke-width:1.46500015;stroke-linecap:round;stroke-linejoin:round;stroke-miterlimit:4;stroke-dasharray:none;stroke-opacity:1" />
      <path
         sodipodi:nodetypes="ccc"
         inkscape:connector-curvature="0"
         id="path845-6"
         d="m 104.42793,44.145226 -1.50874,23.54591 z"
         style="fill:none;stroke:#000000;stroke-width:1.46500015;stroke-linecap:round;stroke-linejoin:round;stroke-miterlimit:4;stroke-dasharray:none;stroke-opacity:1" />
      <path
         sodipodi:nodetypes="cc"
         inkscape:connector-curvature="0"
         id="path868"
         d="m 34.099545,87.756083 c 4.507322,1.87312 8.312418,14.201677 12.259773,24.412167"
         style="fill:none;stroke:#000000;stroke-width:1.16499996;stroke-linecap:butt;stroke-linejoin:miter;stroke-miterlimit:4;stroke-dasharray:none;stroke-opacity:1" />
    </g>
    <path
       style="display:inline;fill:none;stroke:#000000;stroke-width:1.12695563;stroke-linecap:round;stroke-linejoin:round;stroke-miterlimit:4;stroke-dasharray:none;stroke-opacity:1"
       d="m 132.90289,67.302822 -12.04685,-1.48518 -4.60715,2.80021 -1.20617,4.66975 5.66391,-2.381036 4.05401,-0.10921 5.14223,1.431181 5.39936,2.393635 0.7085,-4.38213 z"
       id="path2206-6"
       inkscape:connector-curvature="0"
       sodipodi:nodetypes="cccccccccc" />
  </g>
</svg>
