<?xml version="1.0" encoding="UTF-8" standalone="no"?>
<!-- Created with Inkscape (http://www.inkscape.org/) -->

<svg
   xmlns:dc="http://purl.org/dc/elements/1.1/"
   xmlns:cc="http://creativecommons.org/ns#"
   xmlns:rdf="http://www.w3.org/1999/02/22-rdf-syntax-ns#"
   xmlns:svg="http://www.w3.org/2000/svg"
   xmlns="http://www.w3.org/2000/svg"
   xmlns:sodipodi="http://sodipodi.sourceforge.net/DTD/sodipodi-0.dtd"
   xmlns:inkscape="http://www.inkscape.org/namespaces/inkscape"
   width="136.3026mm"
   height="109.3089mm"
   viewBox="0 0 136.3026 109.3089"
   version="1.1"
   id="svg926"
   inkscape:version="0.92.4 5da689c313, 2019-01-14"
   sodipodi:docname="foreman_head_happy.svg">
  <defs
     id="defs920" />
  <sodipodi:namedview
     id="base"
     pagecolor="#ffffff"
     bordercolor="#666666"
     borderopacity="1.0"
     inkscape:pageopacity="0.0"
     inkscape:pageshadow="2"
     inkscape:zoom="0.9899495"
     inkscape:cx="289.8454"
     inkscape:cy="162.4394"
     inkscape:document-units="mm"
     inkscape:current-layer="layer1"
     showgrid="false"
     inkscape:window-width="1920"
     inkscape:window-height="1051"
     inkscape:window-x="1920"
     inkscape:window-y="0"
     inkscape:window-maximized="1" />
  <metadata
     id="metadata923">
    <rdf:RDF>
      <cc:Work
         rdf:about="">
        <dc:format>image/svg+xml</dc:format>
        <dc:type
           rdf:resource="http://purl.org/dc/dcmitype/StillImage" />
        <dc:title />
      </cc:Work>
    </rdf:RDF>
  </metadata>
  <g
     inkscape:groupmode="layer"
     id="layer2"
     inkscape:label="features"
     transform="translate(-33.90235,-8.034199)">
    <path
       transform="translate(1.041667e-6,-1.0625e-6)"
       style="display:inline;fill:#eaeaea;fill-opacity:1;stroke:#000000;stroke-width:0.2035315px;stroke-linecap:butt;stroke-linejoin:miter;stroke-opacity:1"
       d="m 136.0108,70.24004 -3.1079,-2.93722 -12.0468,-1.48518 -4.6072,2.80021 -1.2062,4.66974 3.5258,4.10026 13.6062,0.31971 3.1276,-3.08539 z"
       id="path2259-6"
       inkscape:connector-curvature="0" />
  </g>
  <g
     inkscape:label="main"
     inkscape:groupmode="layer"
     id="layer1"
     transform="translate(-33.90235,-8.034199)">
    <path
       style="display:inline;fill:#eaeaea;fill-opacity:1;stroke:#000000;stroke-width:0.2035315px;stroke-linecap:butt;stroke-linejoin:miter;stroke-opacity:1"
       d="m 75.35265,69.64545 3.10783,-2.93722 12.04685,-1.48518 4.60715,2.80021 1.20617,4.66974 -3.52575,4.10026 -13.60619,0.31971 -3.12756,-3.08539 z"
       id="path2259"
       inkscape:connector-curvature="0" />
    <path
       style="display:inline;fill:none;stroke:none;stroke-width:0.1741976px;stroke-linecap:butt;stroke-linejoin:miter;stroke-opacity:1"
       d="m 51.74484,52.81123 26.00715,9.51487 0.70849,4.38213 3.12757,3.08538 -7.71013,14.94942 -26.33197,-3.90505 z"
       id="path879"
       inkscape:connector-curvature="0" />
    <path
       style="display:inline;fill:#b1b1b1;fill-opacity:1;stroke:#a6a6a6;stroke-width:0.1741976px;stroke-linecap:butt;stroke-linejoin:miter;stroke-opacity:1"
       d="m 79.30001,32.19385 11.20732,33.0292 -12.04685,1.48518 -3.10783,2.93722 -27.8067,11.19253 4.19889,-28.02675 z"
       id="path896"
       inkscape:connector-curvature="0" />
    <path
       style="display:inline;fill:#adadad;fill-opacity:1;stroke:#a6a6a6;stroke-width:0.1741976px;stroke-linecap:butt;stroke-linejoin:miter;stroke-opacity:1"
       d="m 79.30001,32.19385 11.20732,33.0292 4.60715,2.80021 19.92822,5.26434 1.2062,-4.66973 4.6072,-2.80023 16.9658,-32.97949 z"
       id="path1510"
       inkscape:connector-curvature="0" />
    <path
       style="display:inline;fill:#a8a8a8;fill-opacity:1;stroke:#a6a6a6;stroke-width:0.1741976px;stroke-linecap:butt;stroke-linejoin:miter;stroke-opacity:1"
       d="m 137.8219,32.83815 -16.9658,32.97949 12.0468,1.48518 3.1078,2.93723 24.1178,-11.63019 z"
       id="path1512"
       inkscape:connector-curvature="0" />
    <path
       style="display:inline;fill:#9f9f9f;fill-opacity:1;stroke:#a6a6a6;stroke-width:0.1741976px;stroke-linecap:butt;stroke-linejoin:miter;stroke-opacity:1"
       d="M 156.7169,87.60306 135.3022,74.62217 v 0 l 0.7085,-4.38212 24.1178,-11.63019 z"
       id="path1514"
       inkscape:connector-curvature="0"
       sodipodi:nodetypes="cccccc" />
    <path
       style="display:inline;fill:#a9a9a9;fill-opacity:1;stroke:#a6a6a6;stroke-width:0.1741976px;stroke-linecap:butt;stroke-linejoin:miter;stroke-opacity:1"
       d="m 95.11448,68.02326 1.20617,4.66975 -5.66391,-2.38103 -4.65085,28.14757 16.26721,1.69235 20.5438,-2.03806 -2.1103,-27.20727 -5.6639,2.38103 z"
       id="path1516"
       inkscape:connector-curvature="0"
       sodipodi:nodetypes="ccccccccc" />
    <path
       style="display:inline;fill:#9f9f9f;fill-opacity:1;stroke:#a6a6a6;stroke-width:0.1741976px;stroke-linecap:butt;stroke-linejoin:miter;stroke-opacity:1"
       d="m 120.7066,70.90657 2.1103,27.20727 9.5386,-5.99245 24.3614,-4.51833 -21.4147,-12.98089 -5.3993,-2.39363 z"
       id="path1518"
       inkscape:connector-curvature="0"
       sodipodi:nodetypes="ccccccc" />
    <path
       style="display:inline;fill:#a0a0a0;fill-opacity:1;stroke:#a6a6a6;stroke-width:0.1741976px;stroke-linecap:butt;stroke-linejoin:miter;stroke-opacity:1"
       d="m 138.2743,113.3292 -15.4574,-15.21536 9.5386,-5.99245 24.3614,-4.51833 z"
       id="path1520"
       inkscape:connector-curvature="0" />
    <path
       style="display:inline;fill:#a5a5a5;fill-opacity:1;stroke:#a6a6a6;stroke-width:0.1741976px;stroke-linecap:butt;stroke-linejoin:miter;stroke-opacity:1"
       d="m 86.00589,98.45955 16.26721,1.69235 20.5438,-2.03806 15.4574,15.21536 -37.5374,2.4354 -34.12379,-3.5572 z"
       id="path1522"
       inkscape:connector-curvature="0" />
    <path
       style="display:inline;fill:#b2b2b2;fill-opacity:1;stroke:#a6a6a6;stroke-width:0.1741976px;stroke-linecap:butt;stroke-linejoin:miter;stroke-opacity:1"
       d="m 47.54596,80.83798 27.80669,-11.19253 0.7085,4.38213 5.39935,-2.39363 -6.87408,17.49122 -7.97331,23.08223 z"
       id="path1524"
       inkscape:connector-curvature="0"
       sodipodi:nodetypes="ccccccc" />
    <path
       style="display:inline;fill:#aaaaaa;fill-opacity:1;stroke:#a6a6a6;stroke-width:0.1741976px;stroke-linecap:butt;stroke-linejoin:miter;stroke-opacity:1"
       d="M 90.65674,70.31198 86.00589,98.45955 74.58642,89.12517 81.4605,71.63395 Z"
       id="path1526"
       inkscape:connector-curvature="0"
       sodipodi:nodetypes="ccccc" />
    <path
       style="display:inline;fill:#adadad;fill-opacity:1;stroke:#a6a6a6;stroke-width:0.1741976px;stroke-linecap:butt;stroke-linejoin:miter;stroke-opacity:1"
       d="M 66.61311,112.2074 86.00589,98.45955 74.58642,89.12517 Z"
       id="path1528"
       inkscape:connector-curvature="0" />
    <path
       style="display:inline;fill:none;fill-opacity:1;stroke:#000000;stroke-width:3.1570001;stroke-linecap:round;stroke-linejoin:round;stroke-miterlimit:4;stroke-dasharray:none;stroke-opacity:1"
       d="m 79.30001,32.19385 58.52189,0.6443 22.3066,25.77171 -3.4116,28.9932 -18.4426,25.72614 -37.5374,2.4354 -34.12379,-3.5572 -19.06715,-31.36942 4.19888,-28.02675 z"
       id="path2167"
       inkscape:connector-curvature="0"
       sodipodi:nodetypes="cccccccccc" />
    <path
       style="display:inline;fill:none;stroke:#000000;stroke-width:2.527;stroke-linecap:round;stroke-linejoin:round;stroke-miterlimit:4;stroke-dasharray:none;stroke-opacity:1"
       d="m 78.46048,66.70823 12.04685,-1.48518 4.60715,2.80021 1.20617,4.66975 -5.66391,-2.38103 -4.05401,-0.10921 -5.14223,1.43118 -5.39935,2.39363 -0.7085,-4.38213 z"
       id="path2206"
       inkscape:connector-curvature="0"
       sodipodi:nodetypes="cccccccccc" />
    <g
       style="display:inline"
       id="g875"
       transform="matrix(0.710874,0,0,0.6097707,27.53785,-17.21596)">
      <path
         sodipodi:nodetypes="cccssscc"
         inkscape:connector-curvature="0"
         id="path843"
         d="m 46.35932,112.1683 133.58808,8.1716 18.3476,-4.9672 c 0,0 -11.7089,-35.20804 -39.6038,-56.25884 C 138.0881,43.56582 108.6552,35.74091 68.58853,55.52949 48.20399,65.59724 41.49474,82.80725 30.5197,90.71757 L 11.35025,102.8764 Z"
         style="fill:#eedf1e;fill-opacity:1;stroke:#000000;stroke-width:4.7950702;stroke-linecap:round;stroke-linejoin:round;stroke-miterlimit:4;stroke-dasharray:none;stroke-opacity:1" />
      <path
         sodipodi:nodetypes="ccc"
         inkscape:connector-curvature="0"
         id="path845"
         d="m 116.8699,44.02266 -1.8145,26.27568 z"
         style="fill:none;stroke:#000000;stroke-width:1.465;stroke-linecap:round;stroke-linejoin:round;stroke-miterlimit:4;stroke-dasharray:none;stroke-opacity:1" />
      <path
         sodipodi:nodetypes="ccc"
         inkscape:connector-curvature="0"
         id="path845-3"
         d="m 127.599,44.97086 -1.7091,23.5382 z"
         style="fill:none;stroke:#000000;stroke-width:1.4650002;stroke-linecap:round;stroke-linejoin:round;stroke-miterlimit:4;stroke-dasharray:none;stroke-opacity:1" />
      <path
         sodipodi:nodetypes="ccc"
         inkscape:connector-curvature="0"
         id="path845-6"
         d="m 104.4279,44.14523 -1.5087,23.54591 z"
         style="fill:none;stroke:#000000;stroke-width:1.4650002;stroke-linecap:round;stroke-linejoin:round;stroke-miterlimit:4;stroke-dasharray:none;stroke-opacity:1" />
      <path
         sodipodi:nodetypes="cc"
         inkscape:connector-curvature="0"
         id="path868"
         d="m 34.09955,87.75608 c 4.50732,1.87312 8.31241,14.20172 12.25977,24.41222"
         style="fill:none;stroke:#000000;stroke-width:1.165;stroke-linecap:butt;stroke-linejoin:miter;stroke-miterlimit:4;stroke-dasharray:none;stroke-opacity:1" />
    </g>
    <path
       style="display:inline;fill:none;stroke:#000000;stroke-width:2.527;stroke-linecap:round;stroke-linejoin:round;stroke-miterlimit:4;stroke-dasharray:none;stroke-opacity:1"
       d="m 132.9029,67.30282 -12.0469,-1.48518 -4.6071,2.80021 -1.2062,4.66975 5.6639,-2.38103 4.054,-0.10921 5.1423,1.43118 5.3993,2.39363 0.7085,-4.38213 z"
       id="path2206-6"
       inkscape:connector-curvature="0"
       sodipodi:nodetypes="cccccccccc" />
  </g>
</svg>
