<?xml version="1.0" encoding="UTF-8" standalone="no"?>
<!-- Created with Inkscape (http://www.inkscape.org/) -->

<svg
   xmlns:dc="http://purl.org/dc/elements/1.1/"
   xmlns:cc="http://creativecommons.org/ns#"
   xmlns:rdf="http://www.w3.org/1999/02/22-rdf-syntax-ns#"
   xmlns:svg="http://www.w3.org/2000/svg"
   xmlns="http://www.w3.org/2000/svg"
   xmlns:sodipodi="http://sodipodi.sourceforge.net/DTD/sodipodi-0.dtd"
   xmlns:inkscape="http://www.inkscape.org/namespaces/inkscape"
   width="230.5721mm"
   height="219.4181mm"
   viewBox="0 0 230.5721 219.4181"
   version="1.1"
   id="svg8"
   inkscape:version="0.92.4 5da689c313, 2019-01-14"
   sodipodi:docname="foreman_torso_idle.svg">
  <defs
     id="defs2" />
  <sodipodi:namedview
     id="base"
     pagecolor="#ffffff"
     bordercolor="#666666"
     borderopacity="1.0"
     inkscape:pageopacity="0.0"
     inkscape:pageshadow="2"
     inkscape:zoom="0.4949747"
     inkscape:cx="-165.1575"
     inkscape:cy="222.7748"
     inkscape:document-units="mm"
     inkscape:current-layer="layer2"
     showgrid="false"
     inkscape:window-width="1920"
     inkscape:window-height="1015"
     inkscape:window-x="0"
     inkscape:window-y="0"
     inkscape:window-maximized="1" />
  <metadata
     id="metadata5">
    <rdf:RDF>
      <cc:Work
         rdf:about="">
        <dc:format>image/svg+xml</dc:format>
        <dc:type
           rdf:resource="http://purl.org/dc/dcmitype/StillImage" />
        <dc:title />
      </cc:Work>
    </rdf:RDF>
  </metadata>
  <g
     inkscape:groupmode="layer"
     id="layer2"
     inkscape:label="shapes"
     transform="translate(14.77024,-26.25966)"
     style="display:inline">
    <path
       style="fill:#9a9a9a;fill-opacity:1;stroke:#7f7f7f;stroke-width:0.0864002;stroke-linecap:butt;stroke-linejoin:miter;stroke-miterlimit:4;stroke-dasharray:none;stroke-opacity:1"
       d="M 55.34452,27.97266 113.6024,66.60839 138.2388,29.4445 Z"
       id="path818"
       inkscape:connector-curvature="0" />
    <path
       style="fill:#959595;fill-opacity:1;stroke:#7f7f7f;stroke-width:0.0864002;stroke-linecap:butt;stroke-linejoin:miter;stroke-miterlimit:4;stroke-dasharray:none;stroke-opacity:1"
       d="m 113.6024,66.60839 31.5634,12.02722 23.7961,-7.97967 -7.246,-31.27654 -23.4771,-9.9349 -24.6364,37.16389"
       id="path820"
       inkscape:connector-curvature="0"
       sodipodi:nodetypes="cccccc" />
    <path
       style="fill:#b0b0b0;fill-opacity:1;stroke:#7f7f7f;stroke-width:0.0864002;stroke-linecap:butt;stroke-linejoin:miter;stroke-miterlimit:4;stroke-dasharray:none;stroke-opacity:1"
       d="M 55.34452,27.97266 113.6024,66.60839 33.6065,76.91124 44.33059,39.01144 Z"
       id="path822"
       inkscape:connector-curvature="0" />
    <path
       style="fill:#939393;fill-opacity:1;stroke:#7f7f7f;stroke-width:0.0864002;stroke-linecap:butt;stroke-linejoin:miter;stroke-miterlimit:4;stroke-dasharray:none;stroke-opacity:1"
       d="m 145.1658,78.63561 15.1009,59.35689 8.6952,-67.33656 z"
       id="path824"
       inkscape:connector-curvature="0" />
    <path
       style="fill:#ababab;fill-opacity:1;stroke:#7f7f7f;stroke-width:0.0864002;stroke-linecap:butt;stroke-linejoin:miter;stroke-miterlimit:4;stroke-dasharray:none;stroke-opacity:1"
       d="M 113.6024,66.60839 39.60325,181.1124 33.6065,76.91124 Z"
       id="path826"
       inkscape:connector-curvature="0" />
    <path
       style="fill:#a0a0a0;fill-opacity:1;stroke:#7f7f7f;stroke-width:0.0864002;stroke-linecap:butt;stroke-linejoin:miter;stroke-miterlimit:4;stroke-dasharray:none;stroke-opacity:1"
       d="m 113.6024,66.60839 31.5634,12.02722 15.1009,59.35689 -82.74941,-16.0062 z"
       id="path830"
       inkscape:connector-curvature="0" />
    <path
       style="fill:#a6a6a6;fill-opacity:1;stroke:#7f7f7f;stroke-width:0.0864002;stroke-linecap:butt;stroke-linejoin:miter;stroke-miterlimit:4;stroke-dasharray:none;stroke-opacity:1"
       d="m 85.4879,233.6619 13.33265,-59.9774 -59.21729,7.4279 1.82893,29.0001 8.11552,27.597 35.94019,-4.0476"
       id="path832"
       inkscape:connector-curvature="0" />
    <path
       style="fill:#a2a2a2;fill-opacity:1;stroke:#7f7f7f;stroke-width:0.0864002;stroke-linecap:butt;stroke-linejoin:miter;stroke-miterlimit:4;stroke-dasharray:none;stroke-opacity:1"
       d="m 77.51729,121.9863 -37.91404,59.1261 59.2173,-7.4279 35.26375,-40.9668 z"
       id="path834"
       inkscape:connector-curvature="0" />
    <path
       style="fill:#9c9c9c;fill-opacity:1;stroke:#7f7f7f;stroke-width:0.0864002;stroke-linecap:butt;stroke-linejoin:miter;stroke-miterlimit:4;stroke-dasharray:none;stroke-opacity:1"
       d="m 160.2667,137.9925 -26.1824,-5.2748 -35.26375,40.9668 53.91025,28.7009 7.5359,-64.3929 v 0"
       id="path836"
       inkscape:connector-curvature="0" />
    <path
       style="fill:#999999;fill-opacity:1;stroke:#7f7f7f;stroke-width:0.0864002;stroke-linecap:butt;stroke-linejoin:miter;stroke-miterlimit:4;stroke-dasharray:none;stroke-opacity:1"
       d="M 128.9639,243.9648 144.9051,232.558 152.7308,202.3854 98.82055,173.6845 85.4879,233.6619 Z"
       id="path838"
       inkscape:connector-curvature="0" />
    <path
       style="display:inline;fill:#aaaaaa;fill-opacity:1;stroke:#000000;stroke-width:3.6650004;stroke-linecap:butt;stroke-linejoin:miter;stroke-miterlimit:4;stroke-dasharray:none;stroke-opacity:1"
       d="m 23.3294,111.321 -19.3769,-2.0068 -10.3936,3.9438 -1.5231,14.461 11.1482,17.9693 10.2796,1.1716 12.3623,-6.1273 4.3834,-14.0413 z"
       id="path855-6"
       inkscape:connector-curvature="0"
       sodipodi:nodetypes="ccccccccc" />
    <path
       style="display:inline;fill:#b9b9b9;fill-opacity:1;stroke:#000000;stroke-width:3.3650005;stroke-linecap:butt;stroke-linejoin:miter;stroke-miterlimit:4;stroke-dasharray:none;stroke-opacity:1"
       d="m 25.7478,148.5608 -12.2842,-1.7009 -10.5833,2.0789 -2.4568998,14.3631 4.1577998,10.9613 9.4494,5.2917 7.3705,-1.3229 6.8036,-11.3393 0.9449,-12.8512 z"
       id="path859-7"
       inkscape:connector-curvature="0" />
    <path
       style="display:inline;fill:#b5b5b5;fill-opacity:1;stroke:#000000;stroke-width:4.0650005;stroke-linecap:butt;stroke-linejoin:miter;stroke-miterlimit:4;stroke-dasharray:none;stroke-opacity:1"
       d="m 15.7827,67.20206 -25.9973,3.07697 -2.474,16.84501 6.3622,18.93156 25.9672,3.0759 13.8809,-18.11259 -1.452,-16.44628 z"
       id="path851-3"
       inkscape:connector-curvature="0" />
    <path
       style="display:inline;fill:#b5b5b5;fill-opacity:1;stroke:#000000;stroke-width:4.0650001;stroke-linecap:butt;stroke-linejoin:miter;stroke-miterlimit:4;stroke-dasharray:none;stroke-opacity:1"
       d="m 185.2489,63.28538 25.9973,3.07697 2.474,16.845 -6.3622,18.93155 -25.9672,3.0759 -13.8809,-18.11258 1.452,-16.44628 z"
       id="path851"
       inkscape:connector-curvature="0" />
    <path
       style="display:inline;fill:#aaaaaa;fill-opacity:1;stroke:#000000;stroke-width:3.665;stroke-linecap:butt;stroke-linejoin:miter;stroke-miterlimit:4;stroke-dasharray:none;stroke-opacity:1"
       d="m 177.7022,107.4043 19.3769,-2.0068 10.3936,3.9438 1.5231,14.461 -11.1482,17.9692 -10.2796,1.1716 -12.3623,-6.1273 -4.3834,-14.0412 z"
       id="path855"
       inkscape:connector-curvature="0"
       sodipodi:nodetypes="ccccccccc" />
    <path
       style="display:inline;fill:#b9b9b9;fill-opacity:1;stroke:#000000;stroke-width:3.365;stroke-linecap:butt;stroke-linejoin:miter;stroke-miterlimit:4;stroke-dasharray:none;stroke-opacity:1"
       d="m 175.2838,144.644 12.2842,-1.7009 10.5833,2.0789 2.4569,14.3631 -4.1578,10.9613 -9.4494,5.2917 -7.3705,-1.3229 -6.8036,-11.3393 -0.9449,-12.8512 z"
       id="path859"
       inkscape:connector-curvature="0" />
  </g>
  <g
     inkscape:label="outline"
     inkscape:groupmode="layer"
     id="layer1"
     transform="translate(14.77024,-26.25966)"
     style="display:inline">
    <path
       style="fill:none;stroke:#000000;stroke-width:3.4260001;stroke-linecap:round;stroke-linejoin:round;stroke-miterlimit:4;stroke-dasharray:none;stroke-opacity:1"
       d="M 138.2388,29.4445 55.34452,27.97266 44.33059,39.01144 33.6065,76.91124 l 7.82569,133.20126 8.11552,27.597 35.94019,-4.0476 43.476,10.3029 15.9412,-11.4068 7.8257,-30.1726 16.2311,-131.72946 -7.246,-31.27654 z"
       id="path815"
       inkscape:connector-curvature="0" />
  </g>
</svg>
