<?xml version="1.0" encoding="UTF-8" standalone="no"?>
<!-- Created with Inkscape (http://www.inkscape.org/) -->

<svg
   xmlns:dc="http://purl.org/dc/elements/1.1/"
   xmlns:cc="http://creativecommons.org/ns#"
   xmlns:rdf="http://www.w3.org/1999/02/22-rdf-syntax-ns#"
   xmlns:svg="http://www.w3.org/2000/svg"
   xmlns="http://www.w3.org/2000/svg"
   xmlns:sodipodi="http://sodipodi.sourceforge.net/DTD/sodipodi-0.dtd"
   xmlns:inkscape="http://www.inkscape.org/namespaces/inkscape"
   width="134.5752mm"
   height="108.5997mm"
   viewBox="0 0 134.5752 108.5997"
   version="1.1"
   id="svg846"
   sodipodi:docname="foreman_head.svg"
   inkscape:version="0.92.4 5da689c313, 2019-01-14"
   inkscape:export-filename="/home/bwhaines/git/StoneflowerHarvest/assets/images/foreman_head.png"
   inkscape:export-xdpi="93.55459"
   inkscape:export-ydpi="93.55459">
  <defs
     id="defs840" />
  <sodipodi:namedview
     id="base"
     pagecolor="#ffffff"
     bordercolor="#666666"
     borderopacity="1.0"
     inkscape:pageopacity="0.0"
     inkscape:pageshadow="2"
     inkscape:zoom="0.7"
     inkscape:cx="60.04206"
     inkscape:cy="240.2589"
     inkscape:document-units="mm"
     inkscape:current-layer="layer4"
     showgrid="false"
     inkscape:window-width="1920"
     inkscape:window-height="1015"
     inkscape:window-x="0"
     inkscape:window-y="0"
     inkscape:window-maximized="1"
     showguides="true">
    <inkscape:grid
       type="xygrid"
       id="grid2334"
       originx="-40.95028"
       originy="-180.3912" />
  </sodipodi:namedview>
  <metadata
     id="metadata843">
    <rdf:RDF>
      <cc:Work
         rdf:about="">
        <dc:format>image/svg+xml</dc:format>
        <dc:type
           rdf:resource="http://purl.org/dc/dcmitype/StillImage" />
      </cc:Work>
    </rdf:RDF>
  </metadata>
  <g
     inkscape:groupmode="layer"
     id="layer4"
     inkscape:label="features"
     style="display:inline"
     transform="translate(-40.95028,-8.009144)">
    <path
       style="fill:#eaeaea;fill-opacity:1;stroke:#000000;stroke-width:0.2035315px;stroke-linecap:butt;stroke-linejoin:miter;stroke-opacity:1"
       d="m 81.53697,68.9217 3.10783,-2.93722 12.04685,-1.48518 4.60715,2.80021 1.2062,4.66974 -3.52578,4.10026 -13.60619,0.31971 -3.12756,-3.08539 z"
       id="path2259"
       inkscape:connector-curvature="0" />
    <path
       style="fill:#e9e9e9;fill-opacity:1;stroke:#000000;stroke-width:0.2035315px;stroke-linecap:butt;stroke-linejoin:miter;stroke-opacity:1"
       d="m 121.2271,72.56385 1.2061,-4.66973 4.6072,-2.80023 12.0468,1.48518 3.1079,2.93723 -0.7085,4.38212 -3.1276,3.08539 -13.6062,-0.3197 z"
       id="path2261"
       inkscape:connector-curvature="0" />
  </g>
  <g
     inkscape:groupmode="layer"
     id="layer3"
     inkscape:label="color"
     style="display:inline"
     transform="translate(-40.95028,-8.009144)">
    <path
       style="fill:none;stroke:none;stroke-width:0.1741976px;stroke-linecap:butt;stroke-linejoin:miter;stroke-opacity:1"
       d="m 57.92916,52.08748 26.00715,9.51487 0.70849,4.38213 3.12757,3.08538 -7.71013,14.94942 -26.33197,-3.90505 z"
       id="path879"
       inkscape:connector-curvature="0" />
    <path
       style="fill:#b1b1b1;fill-opacity:1;stroke:#a6a6a6;stroke-width:0.1741976px;stroke-linecap:butt;stroke-linejoin:miter;stroke-opacity:1"
       d="M 85.48433,31.4701 96.69165,64.4993 84.6448,65.98448 81.53697,68.9217 53.73027,80.11423 57.92916,52.08748 Z"
       id="path896"
       inkscape:connector-curvature="0" />
    <path
       style="fill:#adadad;fill-opacity:1;stroke:#a6a6a6;stroke-width:0.1741976px;stroke-linecap:butt;stroke-linejoin:miter;stroke-opacity:1"
       d="m 85.48433,31.4701 11.20732,33.0292 4.60715,2.80021 19.9282,5.26434 1.2062,-4.66973 4.6072,-2.80023 16.9658,-32.97949 z"
       id="path1510"
       inkscape:connector-curvature="0" />
    <path
       style="fill:#a8a8a8;fill-opacity:1;stroke:#a6a6a6;stroke-width:0.1741976px;stroke-linecap:butt;stroke-linejoin:miter;stroke-opacity:1"
       d="m 144.0062,32.1144 -16.9658,32.97949 12.0468,1.48518 3.1079,2.93723 24.1177,-11.63019 z"
       id="path1512"
       inkscape:connector-curvature="0" />
    <path
       style="fill:#9f9f9f;fill-opacity:1;stroke:#a6a6a6;stroke-width:0.1741976px;stroke-linecap:butt;stroke-linejoin:miter;stroke-opacity:1"
       d="m 162.9012,86.87931 -24.5422,-9.8955 3.1276,-3.08539 0.7085,-4.38212 24.1177,-11.63019 z"
       id="path1514"
       inkscape:connector-curvature="0" />
    <path
       style="fill:#a9a9a9;fill-opacity:1;stroke:#a6a6a6;stroke-width:0.1741976px;stroke-linecap:butt;stroke-linejoin:miter;stroke-opacity:1"
       d="m 101.2988,67.29951 1.2062,4.66975 -3.52578,4.10025 -6.78901,21.66629 16.26729,1.69232 20.5437,-2.03803 -4.2484,-20.72598 -3.5258,-4.10026 z"
       id="path1516"
       inkscape:connector-curvature="0" />
    <path
       style="fill:#9f9f9f;fill-opacity:1;stroke:#a6a6a6;stroke-width:0.1741976px;stroke-linecap:butt;stroke-linejoin:miter;stroke-opacity:1"
       d="m 124.7528,76.66411 4.2484,20.72598 9.5386,-5.99245 24.3614,-4.51833 -24.5422,-9.8955 z"
       id="path1518"
       inkscape:connector-curvature="0" />
    <path
       style="fill:#a0a0a0;fill-opacity:1;stroke:#a6a6a6;stroke-width:0.1741976px;stroke-linecap:butt;stroke-linejoin:miter;stroke-opacity:1"
       d="m 144.4587,112.6054 -15.4575,-15.21531 9.5386,-5.99245 24.3614,-4.51833 z"
       id="path1520"
       inkscape:connector-curvature="0" />
    <path
       style="fill:#a5a5a5;fill-opacity:1;stroke:#a6a6a6;stroke-width:0.1741976px;stroke-linecap:butt;stroke-linejoin:miter;stroke-opacity:1"
       d="m 92.19021,97.7358 16.26729,1.69232 20.5437,-2.03803 15.4575,15.21531 -37.5375,2.4355 -34.12377,-3.5573 z"
       id="path1522"
       inkscape:connector-curvature="0" />
    <path
       style="fill:#b2b2b2;fill-opacity:1;stroke:#a6a6a6;stroke-width:0.1741976px;stroke-linecap:butt;stroke-linejoin:miter;stroke-opacity:1"
       d="m 53.73028,80.11423 27.80669,-11.19253 0.7085,4.38213 3.12756,3.08539 -4.60229,12.0122 -7.97331,23.08218 z"
       id="path1524"
       inkscape:connector-curvature="0" />
    <path
       style="fill:#aaaaaa;fill-opacity:1;stroke:#a6a6a6;stroke-width:0.1741976px;stroke-linecap:butt;stroke-linejoin:miter;stroke-opacity:1"
       d="M 98.97922,76.06951 92.19021,97.7358 80.77074,88.40142 85.37303,76.38922 Z"
       id="path1526"
       inkscape:connector-curvature="0" />
    <path
       style="fill:#adadad;fill-opacity:1;stroke:#a6a6a6;stroke-width:0.1741976px;stroke-linecap:butt;stroke-linejoin:miter;stroke-opacity:1"
       d="M 72.79743,111.4836 92.19021,97.7358 80.77074,88.40142 Z"
       id="path1528"
       inkscape:connector-curvature="0" />
  </g>
  <g
     inkscape:label="outlines"
     inkscape:groupmode="layer"
     id="layer1"
     style="display:inline"
     transform="translate(-40.95028,-8.009144)">
    <path
       style="fill:none;fill-opacity:1;stroke:#000000;stroke-width:3.1358852;stroke-linecap:round;stroke-linejoin:round;stroke-miterlimit:4;stroke-dasharray:none;stroke-opacity:1"
       d="m 85.48433,31.4701 58.52187,0.6443 22.3066,25.77171 -3.4116,28.9932 -18.4425,25.72609 -37.5375,2.4355 -34.12377,-3.5573 -19.06715,-31.36937 4.19888,-28.02675 z"
       id="path2167"
       inkscape:connector-curvature="0"
       sodipodi:nodetypes="cccccccccc" />
    <path
       style="fill:none;stroke:#000000;stroke-width:1.1269556;stroke-linecap:round;stroke-linejoin:round;stroke-miterlimit:4;stroke-dasharray:none;stroke-opacity:1"
       d="m 84.6448,65.98448 12.04685,-1.48518 4.60715,2.80021 1.2062,4.66975 -3.52578,4.10025 -13.60619,0.31971 -3.12756,-3.08539 -0.7085,-4.38213 z"
       id="path2206"
       inkscape:connector-curvature="0"
       sodipodi:nodetypes="ccccccccc" />
    <path
       style="fill:none;stroke:#000000;stroke-width:1.1269556;stroke-linecap:round;stroke-linejoin:round;stroke-miterlimit:4;stroke-dasharray:none;stroke-opacity:1"
       d="m 139.0872,66.57907 -12.0468,-1.48518 -4.6072,2.80023 -1.2061,4.66973 3.5257,4.10026 13.6062,0.3197 3.1276,-3.08539 0.7085,-4.38212 z"
       id="path2206-3"
       inkscape:connector-curvature="0"
       sodipodi:nodetypes="ccccccccc" />
  </g>
  <g
     inkscape:groupmode="layer"
     id="layer2"
     inkscape:label="hat"
     style="display:inline"
     transform="translate(-40.95028,-8.009144)">
    <g
       id="g875"
       transform="matrix(0.710874,0,0,0.6097707,33.72217,-17.93971)">
      <path
         sodipodi:nodetypes="cccsscc"
         inkscape:connector-curvature="0"
         id="path843"
         d="m 46.35932,112.1683 133.58808,8.1716 18.3476,-4.9672 c 0,0 -35.3928,-106.42394 -129.70647,-59.84321 C 48.20399,65.59725 41.49474,82.80725 30.5197,90.71757 L 11.35025,102.8764 Z"
         style="fill:#eedf1e;fill-opacity:1;stroke:#000000;stroke-width:2.365;stroke-linecap:round;stroke-linejoin:round;stroke-miterlimit:4;stroke-dasharray:none;stroke-opacity:1" />
      <path
         sodipodi:nodetypes="ccc"
         inkscape:connector-curvature="0"
         id="path845"
         d="m 116.8699,44.02266 -1.8145,26.27568 z"
         style="fill:none;stroke:#000000;stroke-width:1.465;stroke-linecap:round;stroke-linejoin:round;stroke-miterlimit:4;stroke-dasharray:none;stroke-opacity:1" />
      <path
         sodipodi:nodetypes="ccc"
         inkscape:connector-curvature="0"
         id="path845-3"
         d="m 127.599,44.97086 -1.7091,23.5382 z"
         style="fill:none;stroke:#000000;stroke-width:1.4650002;stroke-linecap:round;stroke-linejoin:round;stroke-miterlimit:4;stroke-dasharray:none;stroke-opacity:1" />
      <path
         sodipodi:nodetypes="ccc"
         inkscape:connector-curvature="0"
         id="path845-6"
         d="m 104.4279,44.14523 -1.5087,23.54591 z"
         style="fill:none;stroke:#000000;stroke-width:1.4650002;stroke-linecap:round;stroke-linejoin:round;stroke-miterlimit:4;stroke-dasharray:none;stroke-opacity:1" />
      <path
         sodipodi:nodetypes="cc"
         inkscape:connector-curvature="0"
         id="path868"
         d="m 34.09955,87.75608 c 4.50732,1.87312 8.31241,14.20172 12.25977,24.41222"
         style="fill:none;stroke:#000000;stroke-width:1.165;stroke-linecap:butt;stroke-linejoin:miter;stroke-miterlimit:4;stroke-dasharray:none;stroke-opacity:1" />
    </g>
  </g>
</svg>
